<?xml version="1.0" standalone="no"?>
<!DOCTYPE svg PUBLIC "-//W3C//DTD SVG 20010904//EN"
 "http://www.w3.org/TR/2001/REC-SVG-20010904/DTD/svg10.dtd">
<svg version="1.0" xmlns="http://www.w3.org/2000/svg"
 width="638.000000pt" height="638.000000pt" viewBox="0 0 638.000000 638.000000"
 preserveAspectRatio="xMidYMid meet">
<metadata>
Created by potrace 1.14, written by Peter Selinger 2001-2017
</metadata>
<g transform="translate(0.000000,638.000000) scale(0.100000,-0.100000)"
fill="#000000" stroke="none">
<path d="M3140 6250 c-132 -69 -477 -446 -786 -858 -921 -1227 -1459 -2521
-1420 -3412 35 -815 450 -1380 1201 -1637 306 -105 641 -153 1071 -153 528 0
912 74 1274 247 205 98 341 193 496 347 264 264 415 562 490 966 21 115 29
407 15 552 -59 610 -324 1338 -769 2113 -362 632 -824 1259 -1211 1646 -210
209 -267 239 -361 189z m132 -590 c116 -77 405 -408 633 -725 615 -856 1021
-1738 1137 -2469 32 -205 32 -503 0 -666 -109 -542 -427 -934 -916 -1129 -98
-39 -112 -42 -184 -39 l-79 3 104 170 c58 94 192 310 300 482 135 216 193 319
191 335 l-3 23 -697 3 c-569 2 -698 0 -698 -11 0 -18 163 -339 235 -462 71
-122 203 -328 290 -452 l65 -93 -123 0 -124 0 -80 107 c-157 210 -298 442
-408 668 -53 111 -165 385 -165 404 0 8 260 11 858 11 796 0 859 1 892 18 56
28 80 73 80 151 0 83 -23 125 -84 151 -41 19 -87 20 -944 26 -811 7 -902 9
-907 23 -2 9 -13 72 -24 141 -118 738 37 1455 471 2178 92 153 112 205 104
280 -16 172 -210 276 -369 198 -29 -14 -63 -36 -74 -48 -46 -49 -200 -313
-293 -503 -189 -384 -295 -732 -357 -1165 -22 -159 -25 -697 -5 -860 61 -480
190 -906 403 -1331 68 -136 174 -322 231 -406 l29 -43 -194 0 c-181 0 -199 2
-259 24 -275 104 -508 272 -660 476 -269 363 -355 832 -258 1408 116 687 526
1563 1115 2383 293 409 624 769 705 769 9 0 37 -13 62 -30z"/>
<path d="M3418 4565 c-49 -27 -229 -353 -323 -584 -168 -412 -246 -861 -231
-1321 3 -107 9 -225 12 -262 l7 -68 751 -2 c1009 -4 977 -4 1008 5 51 14 46
40 -48 253 -222 500 -674 1348 -957 1794 -118 186 -157 219 -219 185z"/>
</g>
</svg>
